<svg width="98" height="98" viewBox="0 0 98 98" fill="none" xmlns="http://www.w3.org/2000/svg">
<rect x="0.5" y="0.5" width="97" height="97" fill="white"/>
<path d="M59.5001 49C62.7201 49 65.3101 46.3867 65.3101 43.1667C65.3101 39.9467 62.7201 37.3334 59.5001 37.3334C56.2801 37.3334 53.6667 39.9467 53.6667 43.1667C53.6667 46.3867 56.2801 49 59.5001 49ZM42.0001 46.6667C45.8734 46.6667 48.9767 43.54 48.9767 39.6667C48.9767 35.7934 45.8734 32.6667 42.0001 32.6667C38.1267 32.6667 35.0001 35.7934 35.0001 39.6667C35.0001 43.54 38.1267 46.6667 42.0001 46.6667ZM59.5001 53.6667C55.2301 53.6667 46.6667 55.8134 46.6667 60.0834V65.3334H72.3334V60.0834C72.3334 55.8134 63.7701 53.6667 59.5001 53.6667ZM42.0001 51.3334C36.5634 51.3334 25.6667 54.0634 25.6667 59.5V65.3334H42.0001V60.0834C42.0001 58.1 42.7701 54.6234 47.5301 51.9867C45.5001 51.5667 43.5401 51.3334 42.0001 51.3334Z" fill="#E2E8EC"/>
<rect x="0.5" y="0.5" width="97" height="97" stroke="#DFDFDF"/>
</svg>
