<svg width="20" height="18" viewBox="0 0 20 18" fill="none" xmlns="http://www.w3.org/2000/svg">
<path d="M0.399902 10.2C0.399902 9.53723 0.937161 8.99998 1.5999 8.99998H3.9999C4.66264 8.99998 5.1999 9.53723 5.1999 10.2V16.2C5.1999 16.8627 4.66264 17.4 3.9999 17.4H1.5999C0.937161 17.4 0.399902 16.8627 0.399902 16.2V10.2Z" fill="white"/>
<path d="M7.5999 5.39998C7.5999 4.73723 8.13716 4.19998 8.7999 4.19998H11.1999C11.8626 4.19998 12.3999 4.73723 12.3999 5.39998V16.2C12.3999 16.8627 11.8626 17.4 11.1999 17.4H8.7999C8.13716 17.4 7.5999 16.8627 7.5999 16.2V5.39998Z" fill="white"/>
<path d="M14.7999 1.79998C14.7999 1.13723 15.3372 0.599976 15.9999 0.599976H18.3999C19.0626 0.599976 19.5999 1.13723 19.5999 1.79998V16.2C19.5999 16.8627 19.0626 17.4 18.3999 17.4H15.9999C15.3372 17.4 14.7999 16.8627 14.7999 16.2V1.79998Z" fill="white"/>
</svg>
