<svg width="16" height="20" viewBox="0 0 16 20" fill="none" xmlns="http://www.w3.org/2000/svg">
<path fill-rule="evenodd" clip-rule="evenodd" d="M3.20005 0.400024C1.87457 0.400024 0.800049 1.47454 0.800049 2.80002V17.2C0.800049 18.5255 1.87457 19.6 3.20005 19.6H12.8C14.1255 19.6 15.2 18.5255 15.2 17.2V2.80002C15.2 1.47454 14.1255 0.400024 12.8 0.400024H3.20005ZM4.40005 2.80002C3.73731 2.80002 3.20005 3.33728 3.20005 4.00002C3.20005 4.66277 3.73731 5.20002 4.40005 5.20002H11.6C12.2628 5.20002 12.8 4.66277 12.8 4.00002C12.8 3.33728 12.2628 2.80002 11.6 2.80002H4.40005ZM11.6 11.2C12.2628 11.2 12.8 11.7373 12.8 12.4V16C12.8 16.6628 12.2628 17.2 11.6 17.2C10.9373 17.2 10.4 16.6628 10.4 16V12.4C10.4 11.7373 10.9373 11.2 11.6 11.2ZM8.00005 14.8C7.33731 14.8 6.80005 15.3373 6.80005 16C6.80005 16.6628 7.33731 17.2 8.00005 17.2H8.01205C8.67479 17.2 9.21205 16.6628 9.21205 16C9.21205 15.3373 8.67479 14.8 8.01205 14.8H8.00005ZM3.20005 16C3.20005 15.3373 3.73731 14.8 4.40005 14.8H4.41205C5.07479 14.8 5.61205 15.3373 5.61205 16C5.61205 16.6628 5.07479 17.2 4.41205 17.2H4.40005C3.73731 17.2 3.20005 16.6628 3.20005 16ZM4.40005 11.2C3.73731 11.2 3.20005 11.7373 3.20005 12.4C3.20005 13.0628 3.73731 13.6 4.40005 13.6H4.41205C5.07479 13.6 5.61205 13.0628 5.61205 12.4C5.61205 11.7373 5.07479 11.2 4.41205 11.2H4.40005ZM6.80005 12.4C6.80005 11.7373 7.33731 11.2 8.00005 11.2H8.01205C8.67479 11.2 9.21205 11.7373 9.21205 12.4C9.21205 13.0628 8.67479 13.6 8.01205 13.6H8.00005C7.33731 13.6 6.80005 13.0628 6.80005 12.4ZM11.6 7.60002C10.9373 7.60002 10.4 8.13728 10.4 8.80002C10.4 9.46277 10.9373 10 11.6 10H11.612C12.2748 10 12.812 9.46277 12.812 8.80002C12.812 8.13728 12.2748 7.60002 11.612 7.60002H11.6ZM6.80005 8.80002C6.80005 8.13728 7.33731 7.60002 8.00005 7.60002H8.01205C8.67479 7.60002 9.21205 8.13728 9.21205 8.80002C9.21205 9.46277 8.67479 10 8.01205 10H8.00005C7.33731 10 6.80005 9.46277 6.80005 8.80002ZM4.40005 7.60002C3.73731 7.60002 3.20005 8.13728 3.20005 8.80002C3.20005 9.46277 3.73731 10 4.40005 10H4.41205C5.07479 10 5.61205 9.46277 5.61205 8.80002C5.61205 8.13728 5.07479 7.60002 4.41205 7.60002H4.40005Z" fill="white"/>
</svg>
