<svg width="20" height="21" viewBox="0 0 20 21" fill="none" xmlns="http://www.w3.org/2000/svg">
<path d="M1.5999 0.200012C0.937161 0.200012 0.399902 0.73727 0.399902 1.40001C0.399902 2.06275 0.937161 2.60001 1.5999 2.60001H3.06297L3.42964 4.0667C3.43349 4.08366 3.4377 4.10048 3.44226 4.11716L5.07093 10.6319L3.99985 11.703C2.48793 13.2149 3.55873 15.8 5.6969 15.8H15.9998C16.6626 15.8 17.1998 15.2628 17.1998 14.6C17.1998 13.9373 16.6626 13.4 15.9998 13.4L5.6969 13.4L6.8969 12.2H14.7999C15.2544 12.2 15.6699 11.9432 15.8732 11.5367L19.4732 4.33667C19.6592 3.96468 19.6393 3.52291 19.4207 3.16913C19.202 2.81535 18.8158 2.60001 18.3999 2.60001H5.53683L5.16407 1.10897C5.03052 0.574769 4.55054 0.200012 3.9999 0.200012H1.5999Z" fill="white"/>
<path d="M17.1999 18.8C17.1999 19.7941 16.394 20.6 15.3999 20.6C14.4058 20.6 13.5999 19.7941 13.5999 18.8C13.5999 17.8059 14.4058 17 15.3999 17C16.394 17 17.1999 17.8059 17.1999 18.8Z" fill="white"/>
<path d="M5.7999 20.6C6.79402 20.6 7.5999 19.7941 7.5999 18.8C7.5999 17.8059 6.79402 17 5.7999 17C4.80579 17 3.9999 17.8059 3.9999 18.8C3.9999 19.7941 4.80579 20.6 5.7999 20.6Z" fill="white"/>
</svg>
