<svg width="18" height="18" viewBox="0 0 18 18" fill="none" xmlns="http://www.w3.org/2000/svg">
<path d="M3.0001 0.600006C1.67461 0.600006 0.600098 1.67452 0.600098 3.00001V5.40001C0.600098 6.72549 1.67461 7.80001 3.0001 7.80001H5.4001C6.72558 7.80001 7.8001 6.72549 7.8001 5.40001V3.00001C7.8001 1.67452 6.72558 0.600006 5.4001 0.600006H3.0001Z" fill="white"/>
<path d="M3.0001 10.2C1.67461 10.2 0.600098 11.2745 0.600098 12.6V15C0.600098 16.3255 1.67461 17.4 3.0001 17.4H5.4001C6.72558 17.4 7.8001 16.3255 7.8001 15V12.6C7.8001 11.2745 6.72558 10.2 5.4001 10.2H3.0001Z" fill="white"/>
<path d="M10.2001 3.00001C10.2001 1.67452 11.2746 0.600006 12.6001 0.600006H15.0001C16.3256 0.600006 17.4001 1.67452 17.4001 3.00001V5.40001C17.4001 6.72549 16.3256 7.80001 15.0001 7.80001H12.6001C11.2746 7.80001 10.2001 6.72549 10.2001 5.40001V3.00001Z" fill="white"/>
<path d="M10.2001 12.6C10.2001 11.2745 11.2746 10.2 12.6001 10.2H15.0001C16.3256 10.2 17.4001 11.2745 17.4001 12.6V15C17.4001 16.3255 16.3256 17.4 15.0001 17.4H12.6001C11.2746 17.4 10.2001 16.3255 10.2001 15V12.6Z" fill="white"/>
</svg>
