<svg width="20" height="21" viewBox="0 0 20 21" fill="none" xmlns="http://www.w3.org/2000/svg">
<path d="M1.5999 0.199951C0.937161 0.199951 0.399902 0.737209 0.399902 1.39995C0.399902 2.06269 0.937161 2.59995 1.5999 2.59995H3.06297L3.42964 4.06664C3.43349 4.0836 3.4377 4.10042 3.44226 4.1171L5.07093 10.6318L3.99985 11.7029C2.48793 13.2148 3.55873 15.7999 5.6969 15.7999H15.9998C16.6626 15.7999 17.1998 15.2627 17.1998 14.5999C17.1998 13.9372 16.6626 13.3999 15.9998 13.3999L5.6969 13.3999L6.8969 12.1999H14.7999C15.2544 12.1999 15.6699 11.9431 15.8732 11.5366L19.4732 4.33661C19.6592 3.96462 19.6393 3.52285 19.4207 3.16907C19.202 2.81529 18.8158 2.59995 18.3999 2.59995H5.53683L5.16407 1.10891C5.03052 0.574708 4.55054 0.199951 3.9999 0.199951H1.5999Z" fill="white"/>
<path d="M17.1999 18.7999C17.1999 19.7941 16.394 20.5999 15.3999 20.5999C14.4058 20.5999 13.5999 19.7941 13.5999 18.7999C13.5999 17.8058 14.4058 16.9999 15.3999 16.9999C16.394 16.9999 17.1999 17.8058 17.1999 18.7999Z" fill="white"/>
<path d="M5.7999 20.5999C6.79402 20.5999 7.5999 19.7941 7.5999 18.7999C7.5999 17.8058 6.79402 16.9999 5.7999 16.9999C4.80579 16.9999 3.9999 17.8058 3.9999 18.7999C3.9999 19.7941 4.80579 20.5999 5.7999 20.5999Z" fill="white"/>
</svg>
