<svg width="20" height="18" viewBox="0 0 20 18" fill="none" xmlns="http://www.w3.org/2000/svg">
<path d="M14.2929 12.2929C13.9024 12.6834 13.9024 13.3166 14.2929 13.7071C14.6834 14.0976 15.3166 14.0976 15.7071 13.7071L14.2929 12.2929ZM19 9L19.7071 9.70711C20.0976 9.31658 20.0976 8.68342 19.7071 8.29289L19 9ZM15.7071 4.29289C15.3166 3.90237 14.6834 3.90237 14.2929 4.29289C13.9024 4.68342 13.9024 5.31658 14.2929 5.70711L15.7071 4.29289ZM5 8C4.44772 8 4 8.44771 4 9C4 9.55228 4.44772 10 5 10V8ZM12 13C12 12.4477 11.5523 12 11 12C10.4477 12 10 12.4477 10 13H12ZM10 5C10 5.55228 10.4477 6 11 6C11.5523 6 12 5.55228 12 5H10ZM2 14V4H0V14H2ZM0 14C0 16.2091 1.79086 18 4 18V16C2.89543 16 2 15.1046 2 14H0ZM2 4C2 2.89543 2.89543 2 4 2V0C1.79086 0 0 1.79086 0 4H2ZM15.7071 13.7071L19.7071 9.70711L18.2929 8.29289L14.2929 12.2929L15.7071 13.7071ZM19.7071 8.29289L15.7071 4.29289L14.2929 5.70711L18.2929 9.70711L19.7071 8.29289ZM19 8L5 8V10L19 10V8ZM4 18H8V16H4V18ZM12 14V13H10V14H12ZM4 2H8V0H4V2ZM10 4V5H12V4H10ZM8 2C9.10457 2 10 2.89543 10 4H12C12 1.79086 10.2091 0 8 0V2ZM8 18C10.2091 18 12 16.2091 12 14H10C10 15.1046 9.10457 16 8 16V18Z" fill="white"/>
</svg>
