<svg width="18" height="14" viewBox="0 0 18 14" fill="none" xmlns="http://www.w3.org/2000/svg">
<path d="M1 0C0.447715 0 0 0.447715 0 1C0 1.55228 0.447715 2 1 2V0ZM17 2C17.5523 2 18 1.55228 18 1C18 0.447715 17.5523 0 17 0V2ZM1 6C0.447715 6 0 6.44772 0 7C0 7.55228 0.447715 8 1 8V6ZM17 8C17.5523 8 18 7.55228 18 7C18 6.44772 17.5523 6 17 6V8ZM1 12C0.447715 12 0 12.4477 0 13C0 13.5523 0.447715 14 1 14V12ZM17 14C17.5523 14 18 13.5523 18 13C18 12.4477 17.5523 12 17 12V14ZM1 2H17V0H1V2ZM1 8H17V6H1V8ZM1 14H17V12H1V14Z" fill="white"/>
</svg>
