<svg width="20" height="19" viewBox="0 0 20 19" fill="none" xmlns="http://www.w3.org/2000/svg">
<path d="M9.9999 0.400024C9.33716 0.400024 8.7999 0.937283 8.7999 1.60002V2.80002C8.7999 3.46277 9.33716 4.00002 9.9999 4.00002C10.6626 4.00002 11.1999 3.46277 11.1999 2.80002V1.60002C11.1999 0.937283 10.6626 0.400024 9.9999 0.400024Z" fill="white"/>
<path fill-rule="evenodd" clip-rule="evenodd" d="M2.7999 2.80002H6.3999C6.3999 4.78825 8.01168 6.40003 9.9999 6.40003C11.9881 6.40003 13.5999 4.78825 13.5999 2.80002H17.1999C18.5254 2.80002 19.5999 3.87454 19.5999 5.20003V16C19.5999 17.3255 18.5254 18.4 17.1999 18.4H2.7999C1.47442 18.4 0.399902 17.3255 0.399902 16V5.20003C0.399902 3.87454 1.47442 2.80002 2.7999 2.80002ZM5.7999 11.2C6.79401 11.2 7.5999 10.3941 7.5999 9.40003C7.5999 8.40591 6.79401 7.60003 5.7999 7.60003C4.80579 7.60003 3.9999 8.40591 3.9999 9.40003C3.9999 10.3941 4.80579 11.2 5.7999 11.2ZM8.74048 16C8.77983 15.8062 8.80049 15.6055 8.80049 15.4C8.80049 13.7432 7.45734 12.4 5.80049 12.4C4.14363 12.4 2.80049 13.7432 2.80049 15.4C2.80049 15.6055 2.82115 15.8062 2.8605 16H8.74048ZM12.3999 8.80003C11.7372 8.80003 11.1999 9.33728 11.1999 10C11.1999 10.6628 11.7372 11.2 12.3999 11.2H15.9999C16.6626 11.2 17.1999 10.6628 17.1999 10C17.1999 9.33728 16.6626 8.80003 15.9999 8.80003H12.3999ZM11.1999 13.6C11.1999 12.9373 11.7372 12.4 12.3999 12.4H14.7999C15.4626 12.4 15.9999 12.9373 15.9999 13.6C15.9999 14.2628 15.4626 14.8 14.7999 14.8H12.3999C11.7372 14.8 11.1999 14.2628 11.1999 13.6Z" fill="white"/>
</svg>
