<svg width="22" height="18" viewBox="0 0 22 18" fill="none" xmlns="http://www.w3.org/2000/svg">
<path d="M9.79995 4.19998C9.79995 6.1882 8.18818 7.79998 6.19995 7.79998C4.21173 7.79998 2.59995 6.1882 2.59995 4.19998C2.59995 2.21175 4.21173 0.599976 6.19995 0.599976C8.18818 0.599976 9.79995 2.21175 9.79995 4.19998Z" fill="white"/>
<path d="M19.4 4.19998C19.4 6.1882 17.7882 7.79998 15.8 7.79998C13.8117 7.79998 12.2 6.1882 12.2 4.19998C12.2 2.21175 13.8117 0.599976 15.8 0.599976C17.7882 0.599976 19.4 2.21175 19.4 4.19998Z" fill="white"/>
<path d="M14.5149 17.4C14.571 17.0081 14.6 16.6074 14.6 16.2C14.6 14.2378 13.9272 12.4327 12.7997 11.0029C13.6823 10.4922 14.707 10.2 15.8 10.2C19.1137 10.2 21.8 12.8863 21.8 16.2V17.4H14.5149Z" fill="white"/>
<path d="M6.19995 10.2C9.51366 10.2 12.2 12.8863 12.2 16.2V17.4H0.199951V16.2C0.199951 12.8863 2.88624 10.2 6.19995 10.2Z" fill="white"/>
</svg>
